<svg xmlns="http://www.w3.org/2000/svg" viewBox="0 0 96 96">
  <rect width="96" height="96" rx="18" fill="#0f766e"/>
  <path
    d="M48 16c-8.9 0-16.4 5.9-18.8 14-7.4.7-13.2 6.9-13.2 14.5 0 6 3.7 11.2 9 13.4-.2 1-.3 2.1-.3 3.1 0 10.5 8.5 19 19 19h8.6c10.5 0 19-8.5 19-19 0-1-.1-2.1-.3-3.1 5.3-2.2 9-7.4 9-13.4 0-7.6-5.8-13.8-13.2-14.5C64.4 21.9 56.9 16 48 16Z"
    fill="#f8fafc"
  />
  <path
    d="M48 27v42M36 36h24M34 49h28M39 62h18"
    fill="none"
    stroke="#0f766e"
    stroke-width="7"
    stroke-linecap="round"
  />
</svg>
